<?xml version="1.0" standalone="no"?>
<!DOCTYPE svg PUBLIC "-//W3C//DTD SVG 20010904//EN"
 "http://www.w3.org/TR/2001/REC-SVG-20010904/DTD/svg10.dtd">
<svg version="1.0" xmlns="http://www.w3.org/2000/svg"
 width="260.000000pt" height="260.000000pt" viewBox="0 0 260.000000 260.000000"
 preserveAspectRatio="xMidYMid meet">
<metadata>
Created by potrace 1.14, written by Peter Selinger 2001-2017
</metadata>
<g transform="translate(0.000000,260.000000) scale(0.100000,-0.100000)"
fill="#000000" stroke="none">
<path d="M1092 2589 c-13 -5 -36 -10 -53 -11 -16 -1 -29 -5 -29 -9 0 -4 -8 -6
-17 -5 -10 2 -33 -3 -50 -11 -18 -7 -33 -10 -33 -7 0 4 -6 2 -12 -3 -7 -6 -25
-13 -39 -16 -14 -4 -43 -14 -65 -24 -21 -9 -42 -17 -46 -17 -4 -1 -17 -9 -28
-19 -12 -10 -25 -15 -29 -12 -5 2 -14 -2 -21 -10 -7 -8 -19 -15 -26 -15 -8 0
-14 -4 -14 -10 0 -5 -5 -10 -10 -10 -26 0 -280 -204 -280 -224 0 -3 -18 -24
-40 -47 -22 -23 -45 -54 -52 -70 -7 -15 -15 -26 -19 -23 -4 2 -12 -10 -19 -26
-7 -17 -15 -30 -19 -30 -4 0 -15 -20 -26 -45 -11 -25 -23 -45 -27 -45 -5 0 -8
-6 -8 -14 0 -8 -13 -39 -30 -70 -16 -31 -25 -54 -20 -51 5 3 2 -8 -6 -25 -8
-16 -16 -39 -17 -50 -1 -11 -5 -20 -9 -20 -4 0 -7 -3 -7 -7 1 -5 0 -10 -1 -13
-1 -3 -3 -12 -5 -20 -1 -8 -8 -41 -14 -72 -7 -32 -10 -62 -7 -67 4 -5 2 -12
-3 -16 -6 -3 -10 -76 -10 -171 0 -112 3 -163 10 -158 7 4 7 -1 0 -14 -7 -14
-8 -23 -1 -27 6 -4 8 -10 5 -15 -3 -5 -1 -12 5 -15 8 -5 7 -11 -1 -21 -9 -11
-8 -15 6 -20 13 -5 14 -9 3 -15 -11 -7 -11 -9 1 -9 7 0 11 -6 8 -14 -3 -8 -3
-17 1 -20 7 -8 13 -33 16 -63 0 -11 4 -19 9 -16 4 2 8 -3 8 -11 2 -25 2 -24
52 -138 6 -16 16 -28 20 -28 5 0 5 -4 2 -10 -3 -5 -1 -15 5 -22 5 -7 35 -51
66 -98 31 -47 61 -87 65 -88 5 -2 9 -10 9 -18 0 -9 5 -12 10 -9 6 3 10 1 10
-5 0 -6 20 -32 45 -58 25 -25 45 -50 45 -54 0 -4 6 -8 14 -8 8 0 22 -10 30
-22 9 -12 16 -19 16 -15 0 4 11 -2 24 -15 13 -13 33 -30 46 -38 12 -8 33 -23
45 -33 13 -9 26 -17 30 -17 3 0 22 -11 42 -25 20 -13 40 -22 45 -19 4 3 8 0 8
-5 0 -6 7 -11 15 -11 8 0 15 -4 15 -10 0 -5 9 -10 20 -10 11 0 20 -4 20 -8 0
-4 10 -9 22 -9 13 -1 24 -7 26 -13 2 -5 17 -10 32 -10 16 0 32 -4 35 -10 3 -5
17 -10 31 -10 14 0 23 -4 20 -8 -2 -4 5 -9 17 -9 41 -3 67 -7 67 -13 0 -3 12
-6 28 -7 15 -1 52 -5 82 -8 30 -3 64 -7 75 -8 11 -2 25 -6 31 -10 6 -3 14 -4
17 0 4 3 29 7 56 8 36 2 49 -1 44 -9 -5 -7 -2 -7 8 1 8 7 24 12 34 11 11 0 40
3 65 7 25 4 56 8 70 10 14 2 25 4 25 5 0 2 12 4 55 13 14 3 37 10 53 16 15 6
27 8 27 5 0 -2 10 1 23 8 12 6 27 13 33 14 6 1 27 9 45 17 19 9 44 18 57 22
12 3 22 11 22 16 0 6 5 7 10 4 6 -3 10 -2 10 3 0 9 37 25 53 23 4 -1 7 6 7 14
0 9 6 12 15 9 8 -4 15 -1 15 5 0 6 6 11 14 11 8 0 17 7 20 16 4 9 9 14 12 11
4 -3 12 -1 19 6 7 7 28 23 47 37 41 31 198 188 218 219 8 12 25 35 37 49 13
15 23 31 23 35 0 8 10 21 40 54 8 9 14 19 14 22 -3 11 31 81 39 81 4 0 5 5 2
10 -3 6 -2 10 3 10 5 0 9 6 9 13 0 6 7 28 15 47 25 56 31 74 29 88 -1 6 3 12
9 12 6 0 8 5 5 10 -3 5 -3 16 2 22 4 7 9 22 11 33 5 30 10 50 12 50 1 0 3 11
4 25 2 14 6 36 10 49 6 18 5 22 -5 15 -12 -7 -12 -5 -1 9 22 26 20 250 -3 402
-2 11 -4 20 -5 20 -2 0 -8 30 -13 65 -2 11 -6 23 -10 26 -4 4 -7 13 -7 20 0 7
-5 25 -12 41 -6 15 -12 33 -14 38 -1 6 -8 24 -15 40 -7 17 -13 32 -14 35 -1 3
-10 23 -20 45 -10 22 -17 43 -17 48 1 4 -6 7 -15 7 -9 0 -13 3 -10 6 6 6 -13
48 -35 79 -10 12 -88 115 -103 133 -20 25 -135 142 -135 137 0 -3 -17 11 -37
30 -20 19 -41 35 -46 35 -4 0 -17 9 -29 20 -12 11 -34 26 -50 32 -15 7 -28 15
-28 19 0 17 -293 136 -355 145 -11 1 -20 3 -20 4 0 3 -14 5 -66 13 -14 2 -31
7 -37 11 -7 4 -12 1 -12 -6 0 -9 -3 -10 -8 -2 -9 15 -297 17 -324 3 -15 -8
-19 -8 -14 0 8 13 8 13 -22 0z m178 -289 c23 4 40 3 40 -2 0 -5 6 -6 12 -2 18
11 48 12 48 2 0 -4 9 -8 21 -8 13 0 18 4 14 13 -4 6 -1 5 7 -3 7 -8 29 -15 51
-15 20 0 37 -3 37 -8 0 -5 7 -7 15 -3 8 3 15 1 15 -3 0 -5 9 -7 20 -4 11 3 20
1 20 -4 0 -5 12 -10 27 -11 15 -1 29 -5 32 -10 3 -4 13 -8 21 -10 27 -6 180
-85 180 -94 0 -4 7 -8 15 -8 7 0 18 -7 23 -16 5 -9 12 -15 15 -15 4 1 7 -2 7
-6 0 -5 -67 -8 -149 -8 l-149 0 -46 -50 c-25 -28 -46 -54 -46 -58 0 -5 -4 -5
-10 -2 -5 3 -10 2 -10 -4 0 -5 -24 -35 -54 -65 -30 -31 -53 -56 -51 -56 2 0
-28 -32 -66 -70 -38 -39 -69 -72 -69 -74 0 -1 -24 -27 -52 -58 -133 -139 -173
-183 -171 -189 1 -3 -8 -5 -20 -4 -31 3 -31 3 -18 19 7 8 9 28 6 46 -4 24 -2
30 7 24 10 -6 11 -4 1 7 -17 17 -17 32 0 23 9 -5 9 -4 0 6 -9 9 -9 19 -2 33 9
15 8 18 -2 12 -9 -6 -10 -3 -6 10 4 9 3 23 -3 30 -8 10 -8 15 1 21 8 5 9 3 4
-6 -5 -9 -4 -11 3 -6 8 5 9 13 2 25 -5 10 -7 21 -3 24 3 4 0 13 -6 21 -9 11
-9 16 0 22 8 5 9 3 4 -6 -5 -9 -4 -11 3 -6 8 5 9 13 2 25 -5 10 -7 21 -3 24 3
4 0 13 -6 21 -9 11 -9 16 0 22 8 5 9 3 4 -6 -5 -9 -4 -11 3 -6 8 5 9 13 2 25
-5 10 -7 21 -3 24 3 4 0 13 -6 21 -9 11 -9 16 0 22 8 5 9 3 4 -6 -5 -9 -4 -11
4 -6 6 4 9 12 5 17 -11 19 -12 99 -1 99 8 0 8 3 0 11 -6 6 -9 18 -6 25 6 17
12 16 -157 19 -74 1 -139 3 -144 4 -6 0 18 19 52 41 34 22 63 39 65 38 2 -2
11 5 21 15 10 9 22 15 27 12 5 -4 9 -1 9 4 0 6 7 11 16 11 8 0 22 7 31 15 8 8
19 13 24 9 6 -3 16 0 24 6 8 6 19 9 25 5 5 -3 10 -2 10 4 0 6 17 13 38 16 20
4 44 9 52 12 8 4 26 8 40 9 55 6 93 14 99 19 3 4 7 2 9 -3 1 -5 20 -6 42 -2z
m-635 -330 c0 -33 -3 -60 -7 -60 -4 0 -3 -13 2 -30 5 -17 5 -30 0 -30 -5 0 -5
-13 0 -30 5 -17 5 -30 0 -30 -5 0 -5 -13 0 -30 5 -17 5 -30 0 -30 -5 0 -5 -13
0 -30 5 -17 5 -30 0 -30 -5 0 -5 -13 0 -30 5 -17 5 -30 0 -30 -5 0 -5 -13 0
-30 5 -17 5 -30 0 -30 -5 0 -5 -13 0 -30 5 -17 5 -30 0 -30 -5 0 -5 -13 0 -30
5 -17 5 -30 0 -30 -5 0 -5 -13 0 -30 5 -17 5 -30 0 -30 -5 0 -5 -13 0 -30 5
-17 5 -30 0 -30 -5 0 -5 -13 0 -30 5 -17 5 -30 0 -30 -5 0 -5 -13 0 -30 5 -17
5 -30 0 -30 -5 0 -5 -13 0 -30 5 -17 5 -30 0 -30 -5 0 -5 -13 0 -30 5 -17 5
-30 0 -30 -5 0 -5 -13 0 -30 5 -17 5 -30 0 -30 -5 0 -5 -13 0 -30 5 -17 5 -30
0 -30 -5 0 -5 -13 0 -30 5 -17 5 -30 0 -30 -5 0 -5 -13 0 -30 5 -17 5 -30 0
-30 -5 0 -5 -13 0 -30 5 -17 5 -30 0 -30 -5 0 -5 -13 0 -30 5 -16 5 -30 2 -30
-4 0 -5 -31 -2 -69 4 -59 3 -68 -10 -60 -20 11 -79 74 -120 129 -19 25 -39 48
-45 52 -5 4 -6 8 -2 8 4 0 -4 17 -18 37 -14 21 -25 43 -25 49 0 7 -5 14 -10
16 -6 2 -12 14 -15 28 -3 14 -9 26 -15 28 -6 2 -8 8 -4 13 3 5 2 15 -3 22 -14
21 -33 81 -33 104 0 12 -4 24 -8 27 -4 2 -9 20 -10 38 -1 19 -5 45 -8 58 -9
44 -11 100 -4 95 4 -3 4 11 0 29 -5 22 -3 39 3 45 8 8 7 11 -1 11 -10 0 -10 5
-2 20 8 15 8 20 -2 20 -10 0 -10 2 1 9 7 5 10 14 7 20 -4 6 -3 11 1 11 5 0 8
16 8 35 -1 19 1 35 5 35 4 0 7 6 7 13 3 42 8 65 14 61 6 -3 17 37 22 79 1 9 4
17 8 17 7 0 31 60 28 69 0 2 6 8 15 13 9 5 14 13 11 19 -4 5 -1 9 5 9 6 0 8 5
5 10 -3 6 -2 10 4 10 6 0 13 11 17 25 3 14 10 22 15 19 5 -3 9 1 9 8 0 8 24
41 52 74 29 32 57 64 63 71 5 7 17 12 25 13 12 0 15 -13 15 -60z m1424 -38
c27 -37 57 -75 65 -84 9 -10 16 -21 16 -24 0 -3 9 -18 19 -32 10 -15 19 -30
20 -35 0 -4 7 -20 15 -35 8 -15 16 -36 18 -47 1 -11 6 -22 10 -25 4 -3 9 -16
11 -28 2 -12 6 -25 10 -28 4 -4 7 -18 7 -30 0 -13 5 -26 11 -30 8 -4 7 -9 -2
-15 -8 -5 -9 -9 -3 -9 6 0 12 -11 13 -25 3 -47 4 -55 11 -55 10 0 6 -44 -5
-52 -7 -5 -6 -8 1 -8 13 0 13 -128 0 -149 -7 -10 -6 -12 4 -6 9 6 11 4 5 -5
-4 -6 -10 -29 -12 -49 -3 -20 -5 -43 -7 -51 -1 -8 -5 -20 -9 -26 -4 -7 -8 -28
-9 -47 -2 -19 -6 -33 -10 -30 -5 2 -8 -7 -8 -21 0 -14 -5 -26 -12 -26 -6 0 -9
-3 -5 -6 3 -4 0 -19 -8 -34 -8 -15 -11 -30 -8 -34 4 -3 1 -6 -5 -6 -6 0 -16
-16 -23 -35 -7 -19 -17 -35 -21 -35 -4 0 -8 -7 -8 -15 0 -8 -5 -15 -11 -15 -5
0 -7 -5 -4 -10 3 -6 -1 -13 -9 -16 -9 -3 -16 -11 -16 -18 0 -6 -13 -24 -28
-41 -15 -16 -35 -40 -44 -53 l-16 -23 -26 26 c-14 14 -26 30 -26 35 0 6 -7 10
-15 10 -8 0 -15 3 -15 8 0 4 -14 22 -30 40 -16 18 -30 37 -30 43 0 5 -7 9 -15
9 -8 0 -15 4 -15 10 0 5 -20 30 -45 55 -25 25 -43 45 -41 45 3 0 -16 22 -42
49 -26 28 -67 73 -92 101 -25 28 -65 73 -90 100 -25 27 -67 75 -95 106 -27 31
-55 63 -62 69 -16 16 4 62 30 71 10 3 16 8 14 11 -8 7 25 43 35 37 4 -3 8 0 8
6 0 6 27 38 60 71 33 33 60 62 60 63 0 2 49 54 110 115 60 61 109 113 110 114
0 1 41 45 91 99 52 54 98 94 105 91 7 -3 35 -35 63 -71z m-1039 -723 c0 -5 8
-17 18 -28 9 -10 33 -37 52 -61 19 -23 49 -57 65 -75 51 -56 75 -85 75 -91 0
-3 13 -17 28 -32 16 -15 32 -36 36 -46 3 -10 10 -16 13 -12 4 4 12 -2 17 -13
6 -10 30 -41 53 -68 86 -100 93 -108 93 -115 0 -4 9 -10 20 -13 11 -4 18 -10
16 -14 -3 -4 15 -29 39 -54 24 -26 42 -47 40 -47 -3 0 5 -10 17 -22 20 -20 31
-21 140 -21 117 1 118 0 97 -18 -12 -10 -26 -16 -30 -13 -5 3 -9 -3 -9 -12 0
-10 -3 -15 -6 -11 -4 3 -32 -7 -63 -23 -58 -31 -101 -49 -112 -46 -3 0 -14 -6
-24 -14 -17 -13 -18 -13 -10 0 6 11 3 10 -12 -3 -11 -9 -22 -14 -26 -11 -3 4
-14 3 -24 -1 -22 -10 -38 -13 -78 -17 -16 -1 -33 -7 -37 -12 -4 -6 -12 -5 -21
3 -9 6 -18 8 -21 3 -4 -7 -191 -9 -191 -2 0 3 -37 9 -70 11 -16 2 -35 6 -41
11 -6 4 -25 9 -43 10 -18 1 -35 6 -37 10 -3 4 -14 8 -24 8 -10 0 -20 4 -22 10
-1 5 -15 11 -30 12 -16 1 -28 6 -28 10 0 4 -7 8 -15 8 -8 0 -15 5 -15 11 0 6
-7 8 -15 5 -9 -3 -18 1 -21 9 -4 8 -10 13 -14 10 -4 -2 -15 4 -25 15 -10 11
-21 17 -25 15 -4 -3 -10 1 -13 9 -4 11 17 14 111 16 147 2 150 2 146 15 -11
33 -12 70 -1 77 9 6 9 8 0 8 -7 0 -13 5 -13 11 0 5 6 7 13 3 9 -5 9 -4 0 6 -9
9 -9 19 -2 33 9 15 8 18 -2 12 -9 -6 -10 -3 -6 10 4 9 3 23 -3 30 -8 10 -8 15
1 21 8 5 9 3 4 -6 -5 -9 -4 -11 3 -6 8 5 9 13 2 25 -5 10 -7 21 -3 24 3 4 0
13 -6 21 -9 11 -9 16 0 22 8 5 9 3 4 -6 -5 -9 -4 -11 3 -6 8 5 9 13 2 25 -5
10 -7 21 -3 24 3 4 0 13 -6 21 -9 11 -9 16 0 22 8 5 9 3 4 -6 -5 -9 -4 -11 3
-6 8 5 9 13 2 25 -5 10 -7 21 -3 24 3 4 0 13 -6 21 -9 11 -9 16 0 22 8 5 9 3
4 -6 -5 -9 -4 -11 4 -6 6 4 9 12 5 17 -10 17 -12 99 -2 99 5 0 6 6 1 13 -4 6
-8 19 -8 27 0 8 -4 21 -9 29 -6 10 -5 12 2 7 10 -6 14 0 14 24 1 3 -2 17 -6
32 -5 22 -3 25 14 21 11 -3 20 -9 20 -14z"/>
</g>
</svg>
